<svg width="157" height="51" viewBox="0 0 157 51" fill="none" xmlns="http://www.w3.org/2000/svg">
<path d="M75.1738 10.5C75.1738 4.97715 79.6415 0.5 85.1526 0.5H147.021C152.532 0.5 157 4.97715 157 10.5V40.5C157 46.0229 152.532 50.5 147.021 50.5H85.1527C79.6415 50.5 75.1738 46.0229 75.1738 40.5V10.5Z" fill="#131B32"/>
<path d="M117.234 10.4999V41.5302H109.767V10.4999H117.234Z" fill="white"/>
<path d="M120.91 16.5908V10.4999H147.021V16.5908H137.654V41.5302H130.293V16.5908H120.91Z" fill="white"/>
<path d="M0 10.5C0 4.97715 4.46767 0.5 9.97881 0.5H89.8093C95.3205 0.5 99.7881 4.97715 99.7881 10.5V40.5C99.7881 46.0229 95.3205 50.5 89.8093 50.5H9.97882C4.46767 50.5 0 46.0229 0 40.5V10.5Z" fill="#008BB7"/>
<path d="M7.31787 40.9545V9.92424H20.1089C22.4272 9.92424 24.428 10.3788 26.1113 11.2879C27.8047 12.1869 29.11 13.4444 30.0272 15.0606C30.9445 16.6667 31.4031 18.5354 31.4031 20.6667C31.4031 22.8081 30.9344 24.6818 29.997 26.2879C29.0697 27.8838 27.7442 29.1212 26.0206 30C24.297 30.8788 22.2508 31.3182 19.8821 31.3182H11.9898V25.4091H18.4911C19.62 25.4091 20.5625 25.2121 21.3184 24.8182C22.0845 24.4242 22.6641 23.8737 23.0572 23.1667C23.4503 22.4495 23.6468 21.6162 23.6468 20.6667C23.6468 19.7071 23.4503 18.8788 23.0572 18.1818C22.6641 17.4747 22.0845 16.9293 21.3184 16.5455C20.5524 16.1616 19.61 15.9697 18.4911 15.9697H14.802V40.9545H7.31787Z" fill="white"/>
<path d="M35.0922 40.9545V9.92424H47.8833C50.2016 9.92424 52.2024 10.3434 53.8857 11.1818C55.579 12.0101 56.8844 13.202 57.8016 14.7576C58.7188 16.303 59.1775 18.1364 59.1775 20.2576C59.1775 22.4091 58.7088 24.2374 57.7714 25.7424C56.834 27.2374 55.5034 28.3788 53.7798 29.1667C52.0562 29.9444 50.0151 30.3333 47.6565 30.3333H39.5676V24.4242H46.2655C47.3944 24.4242 48.3368 24.2778 49.0928 23.9848C49.8589 23.6818 50.4384 23.2273 50.8316 22.6212C51.2247 22.0051 51.4212 21.2172 51.4212 20.2576C51.4212 19.298 51.2247 18.5051 50.8316 17.8788C50.4384 17.2424 49.8589 16.7677 49.0928 16.4545C48.3268 16.1313 47.3843 15.9697 46.2655 15.9697H42.5763V40.9545H35.0922ZM52.5249 26.7727L60.2358 40.9545H52.0713L44.5116 26.7727H52.5249Z" fill="white"/>
<path d="M92.5082 25.4394C92.5082 28.8535 91.853 31.7475 90.5427 34.1212C89.2323 36.495 87.4583 38.298 85.2207 39.5303C82.9931 40.7626 80.4933 41.3788 77.7214 41.3788C74.9395 41.3788 72.4347 40.7576 70.2071 39.5152C67.9795 38.2727 66.2105 36.4697 64.9002 34.1061C63.5999 31.7323 62.9498 28.8434 62.9498 25.4394C62.9498 22.0253 63.5999 19.1313 64.9002 16.7576C66.2105 14.3838 67.9795 12.5808 70.2071 11.3485C72.4347 10.1162 74.9395 9.5 77.7214 9.5C80.4933 9.5 82.9931 10.1162 85.2207 11.3485C87.4583 12.5808 89.2323 14.3838 90.5427 16.7576C91.853 19.1313 92.5082 22.0253 92.5082 25.4394ZM84.8578 25.4394C84.8578 23.4192 84.5705 21.7121 83.996 20.3182C83.4315 18.9242 82.6151 17.8687 81.5466 17.1515C80.4883 16.4343 79.2132 16.0758 77.7214 16.0758C76.2397 16.0758 74.9647 16.4343 73.8962 17.1515C72.8278 17.8687 72.0063 18.9242 71.4317 20.3182C70.8673 21.7121 70.5851 23.4192 70.5851 25.4394C70.5851 27.4596 70.8673 29.1667 71.4317 30.5606C72.0063 31.9545 72.8278 33.0101 73.8962 33.7273C74.9647 34.4444 76.2397 34.803 77.7214 34.803C79.2132 34.803 80.4883 34.4444 81.5466 33.7273C82.6151 33.0101 83.4315 31.9545 83.996 30.5606C84.5705 29.1667 84.8578 27.4596 84.8578 25.4394Z" fill="white"/>
</svg>
