<svg width="106" height="33" viewBox="0 0 106 33" fill="none" xmlns="http://www.w3.org/2000/svg">
<path d="M50.7754 6.6C50.7754 2.95492 53.7633 0 57.4491 0H98.8262C102.512 0 105.5 2.95492 105.5 6.6V26.4C105.5 30.0451 102.512 33 98.8262 33H57.4491C53.7633 33 50.7754 30.0451 50.7754 26.4V6.6Z" fill="#131B32"/>
<path d="M78.9048 6.59998V27.08H73.9111V6.59998H78.9048Z" fill="white"/>
<path d="M81.3638 10.62V6.59998H98.8264V10.62H92.5616V27.08H87.6386V10.62H81.3638Z" fill="white"/>
<path d="M0.5 6.6C0.5 2.95492 3.48793 0 7.17373 0H60.5636C64.2494 0 67.2373 2.95492 67.2373 6.6V26.4C67.2373 30.0451 64.2494 33 60.5636 33H7.17373C3.48793 33 0.5 30.0451 0.5 26.4V6.6Z" fill="#008BB7"/>
<path d="M5.39453 26.7V6.22H13.949C15.4995 6.22 16.8376 6.52 17.9634 7.12C19.0959 7.71334 19.9689 8.54334 20.5823 9.61C21.1958 10.67 21.5025 11.9033 21.5025 13.31C21.5025 14.7233 21.189 15.96 20.5621 17.02C19.9419 18.0733 19.0555 18.89 17.9027 19.47C16.75 20.05 15.3815 20.34 13.7974 20.34H8.51905V16.44H12.8671C13.6221 16.44 14.2524 16.31 14.758 16.05C15.2703 15.79 15.6579 15.4267 15.9208 14.96C16.1837 14.4867 16.3152 13.9367 16.3152 13.31C16.3152 12.6767 16.1837 12.13 15.9208 11.67C15.6579 11.2033 15.2703 10.8433 14.758 10.59C14.2456 10.3367 13.6154 10.21 12.8671 10.21H10.3998V26.7H5.39453Z" fill="white"/>
<path d="M23.9697 26.7V6.22H32.5243C34.0747 6.22 35.4128 6.49667 36.5386 7.05C37.6711 7.59667 38.5441 8.38334 39.1575 9.41C39.771 10.43 40.0777 11.64 40.0777 13.04C40.0777 14.46 39.7642 15.6667 39.1373 16.66C38.5104 17.6467 37.6206 18.4 36.4678 18.92C35.3151 19.4333 33.95 19.69 32.3726 19.69H26.9628V15.79H31.4423C32.1973 15.79 32.8276 15.6933 33.3332 15.5C33.8455 15.3 34.2331 15 34.496 14.6C34.7589 14.1933 34.8904 13.6733 34.8904 13.04C34.8904 12.4067 34.7589 11.8833 34.496 11.47C34.2331 11.05 33.8455 10.7367 33.3332 10.53C32.8209 10.3167 32.1906 10.21 31.4423 10.21H28.975V26.7H23.9697ZM35.6285 17.34L40.7855 26.7H35.3252L30.2693 17.34H35.6285Z" fill="white"/>
<path d="M62.369 16.46C62.369 18.7133 61.9308 20.6233 61.0544 22.19C60.1781 23.7567 58.9917 24.9467 57.4951 25.76C56.0053 26.5733 54.3335 26.98 52.4797 26.98C50.6192 26.98 48.944 26.57 47.4542 25.75C45.9644 24.93 44.7813 23.74 43.905 22.18C43.0354 20.6133 42.6006 18.7067 42.6006 16.46C42.6006 14.2067 43.0354 12.2967 43.905 10.73C44.7813 9.16334 45.9644 7.97334 47.4542 7.16C48.944 6.34667 50.6192 5.94 52.4797 5.94C54.3335 5.94 56.0053 6.34667 57.4951 7.16C58.9917 7.97334 60.1781 9.16334 61.0544 10.73C61.9308 12.2967 62.369 14.2067 62.369 16.46ZM57.2524 16.46C57.2524 15.1267 57.0603 14 56.6761 13.08C56.2986 12.16 55.7525 11.4633 55.038 10.99C54.3302 10.5167 53.4774 10.28 52.4797 10.28C51.4888 10.28 50.636 10.5167 49.9214 10.99C49.2069 11.4633 48.6575 12.16 48.2732 13.08C47.8957 14 47.707 15.1267 47.707 16.46C47.707 17.7933 47.8957 18.92 48.2732 19.84C48.6575 20.76 49.2069 21.4567 49.9214 21.93C50.636 22.4033 51.4888 22.64 52.4797 22.64C53.4774 22.64 54.3302 22.4033 55.038 21.93C55.7525 21.4567 56.2986 20.76 56.6761 19.84C57.0603 18.92 57.2524 17.7933 57.2524 16.46Z" fill="white"/>
</svg>
