<svg width="157" height="51" fill="none" xmlns="http://www.w3.org/2000/svg"><path d="M75.174 10.5c0-5.523 4.467-10 9.979-10h61.868c5.511 0 9.979 4.477 9.979 10v30c0 5.523-4.468 10-9.979 10H85.153c-5.512 0-9.98-4.477-9.98-10v-30z" fill="#131B32"/><path d="M117.234 10.5v31.03h-7.467V10.5h7.467zm3.676 6.09V10.5h26.111v6.09h-9.367v24.94h-7.361V16.59h-9.383z" fill="#fff"/><path d="M0 10.5C0 4.977 4.468.5 9.979.5h79.83c5.511 0 9.98 4.477 9.98 10v30c0 5.523-4.469 10-9.98 10H9.98C4.468 50.5 0 46.023 0 40.5v-30z" fill="#008BB7"/><path d="M7.318 40.955V9.925h12.79c2.32 0 4.32.454 6.003 1.363 1.694.899 2.999 2.156 3.916 3.773.918 1.606 1.376 3.474 1.376 5.606 0 2.141-.469 4.015-1.406 5.62-.927 1.597-2.253 2.834-3.976 3.713-1.724.879-3.77 1.318-6.139 1.318H11.99V25.41h6.501c1.129 0 2.072-.197 2.827-.59.766-.395 1.346-.945 1.74-1.652.392-.718.589-1.55.589-2.5 0-.96-.197-1.788-.59-2.485-.393-.707-.973-1.253-1.739-1.636-.766-.384-1.708-.576-2.827-.576h-3.689v24.985H7.318zm27.774 0V9.925h12.791c2.319 0 4.32.418 6.003 1.257 1.693.828 2.998 2.02 3.916 3.576.917 1.545 1.376 3.378 1.376 5.5 0 2.151-.47 3.98-1.407 5.484-.937 1.495-2.268 2.637-3.991 3.425-1.724.777-3.765 1.166-6.123 1.166h-8.09v-5.909h6.699c1.128 0 2.07-.146 2.827-.44.766-.302 1.345-.757 1.739-1.363.393-.616.59-1.404.59-2.363 0-.96-.197-1.753-.59-2.38-.394-.636-.973-1.11-1.74-1.424-.765-.323-1.708-.484-2.826-.484h-3.69v24.985h-7.484zm17.433-14.182l7.71 14.182h-8.164l-7.56-14.182h8.014zm39.983-1.333c0 3.413-.655 6.307-1.965 8.681-1.31 2.374-3.085 4.177-5.322 5.41-2.228 1.232-4.728 1.848-7.5 1.848-2.782 0-5.286-.621-7.514-1.864-2.227-1.242-3.996-3.045-5.307-5.409-1.3-2.374-1.95-5.263-1.95-8.667 0-3.414.65-6.308 1.95-8.681 1.31-2.374 3.08-4.177 5.307-5.41C72.435 10.117 74.94 9.5 77.721 9.5c2.772 0 5.272.616 7.5 1.848 2.237 1.233 4.011 3.036 5.322 5.41 1.31 2.373 1.965 5.267 1.965 8.681zm-7.65 0c0-2.02-.288-3.728-.862-5.122-.564-1.394-1.38-2.45-2.45-3.167-1.058-.717-2.333-1.075-3.825-1.075-1.481 0-2.756.358-3.825 1.075-1.068.718-1.89 1.773-2.464 3.167-.565 1.394-.847 3.101-.847 5.121 0 2.02.282 3.728.847 5.122.574 1.393 1.396 2.45 2.464 3.166 1.069.717 2.344 1.076 3.825 1.076 1.492 0 2.767-.359 3.826-1.076 1.068-.717 1.885-1.772 2.449-3.166.575-1.394.862-3.101.862-5.122z" fill="#fff"/></svg>