<svg width="106" height="33" fill="none" xmlns="http://www.w3.org/2000/svg"><path d="M50.775 6.6c0-3.645 2.988-6.6 6.674-6.6h41.377c3.686 0 6.674 2.955 6.674 6.6v19.8c0 3.645-2.988 6.6-6.674 6.6H57.45c-3.686 0-6.674-2.955-6.674-6.6V6.6z" fill="#131B32"/><path d="M78.905 6.6v20.48H73.91V6.6h4.994zm2.459 4.02V6.6h17.462v4.02h-6.264v16.46h-4.923V10.62h-6.275z" fill="#fff"/><path d="M.5 6.6C.5 2.955 3.488 0 7.174 0h53.39c3.685 0 6.673 2.955 6.673 6.6v19.8c0 3.645-2.988 6.6-6.673 6.6H7.174C3.488 33 .5 30.045.5 26.4V6.6z" fill="#008BB7"/><path d="M5.395 26.7V6.22h8.554c1.55 0 2.889.3 4.014.9 1.133.593 2.006 1.423 2.62 2.49.613 1.06.92 2.293.92 3.7 0 1.413-.314 2.65-.94 3.71-.621 1.053-1.508 1.87-2.66 2.45-1.153.58-2.521.87-4.106.87H8.52v-3.9h4.348c.755 0 1.385-.13 1.891-.39.512-.26.9-.623 1.163-1.09.263-.473.394-1.023.394-1.65 0-.633-.131-1.18-.394-1.64a2.635 2.635 0 00-1.163-1.08c-.512-.253-1.143-.38-1.89-.38H10.4V26.7H5.395zm18.575 0V6.22h8.554c1.55 0 2.889.277 4.015.83 1.132.547 2.005 1.333 2.618 2.36.614 1.02.92 2.23.92 3.63 0 1.42-.313 2.627-.94 3.62-.627.987-1.516 1.74-2.67 2.26-1.152.513-2.517.77-4.094.77h-5.41v-3.9h4.48c.754 0 1.385-.097 1.89-.29.513-.2.9-.5 1.163-.9.263-.407.394-.927.394-1.56s-.131-1.157-.394-1.57c-.263-.42-.65-.733-1.163-.94-.512-.213-1.142-.32-1.89-.32h-2.468V26.7H23.97zm11.659-9.36l5.157 9.36h-5.46l-5.057-9.36h5.36zm26.74-.88c0 2.253-.438 4.163-1.315 5.73-.876 1.567-2.062 2.757-3.559 3.57-1.49.813-3.161 1.22-5.015 1.22-1.86 0-3.536-.41-5.026-1.23-1.49-.82-2.673-2.01-3.549-3.57-.87-1.567-1.304-3.473-1.304-5.72 0-2.253.434-4.163 1.304-5.73.876-1.567 2.06-2.757 3.55-3.57 1.489-.813 3.164-1.22 5.025-1.22 1.854 0 3.525.407 5.015 1.22 1.497.813 2.683 2.003 3.56 3.57.876 1.567 1.314 3.477 1.314 5.73zm-5.117 0c0-1.333-.192-2.46-.576-3.38-.377-.92-.924-1.617-1.638-2.09-.708-.473-1.56-.71-2.558-.71-.991 0-1.844.237-2.559.71-.714.473-1.264 1.17-1.648 2.09-.377.92-.566 2.047-.566 3.38 0 1.333.189 2.46.566 3.38.384.92.934 1.617 1.648 2.09.715.473 1.568.71 2.559.71.997 0 1.85-.237 2.558-.71.715-.473 1.26-1.17 1.638-2.09.384-.92.576-2.047.576-3.38z" fill="#fff"/></svg>