<svg width="24" height="24" fill="none" xmlns="http://www.w3.org/2000/svg"><g clip-path="url(#clip0_468_697)"><path d="M22 12c0 4.991-3.657 9.128-8.438 9.878v-6.987h2.33L16.337 12h-2.773v-1.876c0-.79.387-1.562 1.63-1.562h1.26v-2.46s-1.144-.196-2.239-.196c-2.284 0-3.777 1.385-3.777 3.89V12H7.899v2.89h2.54v6.988C5.657 21.128 2 16.991 2 12 2 6.477 6.477 2 12 2s10 4.477 10 10z" fill="#1877F2"/><path d="M15.893 14.89l.443-2.89h-2.773v-1.876c0-.79.387-1.562 1.63-1.562h1.26v-2.46s-1.144-.196-2.238-.196c-2.285 0-3.777 1.385-3.777 3.89V12h-2.54v2.89h2.54v6.988a10.072 10.072 0 003.124 0v-6.987h2.33z" fill="#fff"/></g><defs><clipPath id="clip0_468_697"><path fill="#fff" transform="translate(2 2)" d="M0 0h20v20H0z"/></clipPath></defs></svg>