<svg width="16" height="17" viewBox="0 0 16 17" fill="none" xmlns="http://www.w3.org/2000/svg">
<path d="M11.6689 0.5H4.33105C1.94287 0.5 0 2.44287 0 4.83105V12.1691C0 14.5571 1.94287 16.5 4.33105 16.5H11.6691C14.0571 16.5 16 14.5571 16 12.1691V4.83105C16 2.44287 14.0571 0.5 11.6689 0.5ZM15.062 12.1691C15.062 14.0399 13.5399 15.562 11.6689 15.562H4.33105C2.46008 15.562 0.937988 14.0399 0.937988 12.1691V4.83105C0.937988 2.96008 2.46008 1.43799 4.33105 1.43799H11.6691C13.5399 1.43799 15.062 2.96008 15.062 4.83105V12.1691Z" fill="black"/>
<path d="M7.99988 4.125C5.58752 4.125 3.625 6.08752 3.625 8.49988C3.625 10.9122 5.58752 12.8748 7.99988 12.8748C10.4122 12.8748 12.3748 10.9122 12.3748 8.49988C12.3748 6.08752 10.4122 4.125 7.99988 4.125ZM7.99988 11.9368C6.10486 11.9368 4.56299 10.395 4.56299 8.49988C4.56299 6.60486 6.10486 5.06299 7.99988 5.06299C9.89502 5.06299 11.4368 6.60486 11.4368 8.49988C11.4368 10.395 9.89502 11.9368 7.99988 11.9368Z" fill="black"/>
<path d="M12.4792 2.57227C11.7664 2.57227 11.1865 3.15222 11.1865 3.86499C11.1865 4.57788 11.7664 5.15784 12.4792 5.15784C13.1921 5.15784 13.7721 4.57788 13.7721 3.86499C13.7721 3.1521 13.1921 2.57227 12.4792 2.57227ZM12.4792 4.21973C12.2837 4.21973 12.1245 4.06055 12.1245 3.86499C12.1245 3.66931 12.2837 3.51025 12.4792 3.51025C12.6749 3.51025 12.8341 3.66931 12.8341 3.86499C12.8341 4.06055 12.6749 4.21973 12.4792 4.21973Z" fill="black"/>
</svg>
