<svg width="16" height="17" viewBox="0 0 16 17" fill="none" xmlns="http://www.w3.org/2000/svg">
<g clip-path="url(#clip0_686_2338)">
<path d="M10.4628 7.78028L6.92797 5.84619C6.72473 5.73499 6.4845 5.73914 6.28528 5.85718C6.08594 5.97534 5.96704 6.18408 5.96704 6.41577V10.2507C5.96704 10.4813 6.0852 10.6897 6.2832 10.808C6.3866 10.8698 6.50122 10.9008 6.61609 10.9008C6.72131 10.9008 6.82678 10.8748 6.92382 10.8225L10.4587 8.92176C10.6686 8.80884 10.7995 8.5907 10.8005 8.3523C10.8014 8.11389 10.672 7.89478 10.4628 7.78028ZM6.90466 9.76831V6.9021L9.54649 8.34766L6.90466 9.76831Z" fill="black"/>
<path d="M15.8823 5.29773L15.8815 5.29041C15.868 5.16162 15.7331 4.01611 15.1762 3.43347C14.5325 2.74817 13.8028 2.66492 13.4519 2.625C13.4228 2.6217 13.3962 2.61865 13.3724 2.61548L13.3444 2.61255C11.2292 2.45874 8.03476 2.43774 8.00278 2.43762L7.99997 2.4375L7.99716 2.43762C7.96518 2.43774 4.77073 2.45874 2.63646 2.61255L2.60827 2.61548C2.58556 2.61853 2.56054 2.62134 2.53332 2.62451C2.18639 2.66455 1.46447 2.74792 0.818967 3.45801C0.288573 4.03442 0.135253 5.1554 0.119506 5.28137L0.117675 5.29773C0.112915 5.35132 0 6.62708 0 7.90784V9.1051C0 10.3859 0.112915 11.6616 0.117675 11.7153L0.11853 11.7234C0.13208 11.8501 0.266845 12.9746 0.821164 13.5575C1.42639 14.2198 2.19164 14.3075 2.60326 14.3546C2.66832 14.3621 2.72435 14.3684 2.76256 14.3751L2.79955 14.3802C4.02086 14.4965 7.85007 14.5537 8.01242 14.556L8.0173 14.5562L8.02219 14.556C8.05417 14.5559 11.2485 14.5349 13.3637 14.3811L13.3917 14.3782C13.4184 14.3746 13.4484 14.3715 13.4814 14.368C13.8264 14.3314 14.5444 14.2554 15.181 13.5549C15.7114 12.9784 15.8648 11.8574 15.8804 11.7316L15.8823 11.7152C15.887 11.6615 16.0001 10.3859 16.0001 9.1051V7.90784C15.9999 6.62708 15.887 5.35144 15.8823 5.29773ZM15.0623 9.1051C15.0623 10.2905 14.9588 11.5114 14.949 11.6234C14.9092 11.9321 14.7475 12.6414 14.4891 12.9222C14.0906 13.3606 13.6813 13.4041 13.3825 13.4357C13.3464 13.4395 13.3129 13.4431 13.2827 13.4469C11.2368 13.5948 8.16293 13.6176 8.02133 13.6184C7.86252 13.6161 4.08934 13.5583 2.90526 13.4484C2.84459 13.4385 2.77904 13.4309 2.70995 13.4231C2.35949 13.3829 1.87975 13.328 1.51086 12.9222L1.50219 12.913C1.24829 12.6484 1.09118 11.9852 1.05127 11.6271C1.04382 11.5424 0.937618 10.3071 0.937618 9.1051V7.90784C0.937618 6.72375 1.04089 5.50427 1.0509 5.38989C1.09838 5.02625 1.26318 4.35999 1.51086 4.0907C1.9215 3.63904 2.35448 3.58899 2.64086 3.55591C2.6682 3.55273 2.69372 3.5498 2.71727 3.54675C4.79295 3.39807 7.88889 3.37598 7.99997 3.37512C8.11105 3.37585 11.2059 3.39807 13.2631 3.54675C13.2884 3.54993 13.316 3.5531 13.3457 3.55652C13.6402 3.59009 14.0854 3.64087 14.494 4.07666L14.4977 4.08069C14.7517 4.34521 14.9088 5.02002 14.9487 5.38538C14.9558 5.46533 15.0623 6.70325 15.0623 7.90784V9.1051Z" fill="black"/>
</g>
<defs>
<clipPath id="clip0_686_2338">
<rect width="16" height="16" fill="white" transform="translate(0 0.5)"/>
</clipPath>
</defs>
</svg>
