<svg width="16" height="17" viewBox="0 0 16 17" fill="none" xmlns="http://www.w3.org/2000/svg">
<g clip-path="url(#clip0_686_2765)">
<path d="M9.08031 16.4688H6.51304C6.08423 16.4688 5.7354 16.1206 5.7354 15.6926V9.91333H4.2376C3.80879 9.91333 3.45996 9.56506 3.45996 9.13721V6.66077C3.45996 6.23279 3.80879 5.88464 4.2376 5.88464H5.7354V4.64453C5.7354 3.41492 6.12227 2.36877 6.85404 1.61938C7.58912 0.866577 8.61639 0.46875 9.82481 0.46875L11.7827 0.471924C12.2108 0.472656 12.559 0.820801 12.559 1.24805V3.54736C12.559 3.97534 12.2103 4.32349 11.7816 4.32349L10.4634 4.32398C10.0614 4.32398 9.95898 4.40442 9.93709 4.42908C9.90101 4.46997 9.85808 4.58557 9.85808 4.90479V5.88452H11.6826C11.8199 5.88452 11.953 5.91834 12.0673 5.98206C12.314 6.11963 12.4674 6.37976 12.4674 6.66089L12.4664 9.13733C12.4664 9.56506 12.1176 9.91321 11.6888 9.91321H9.85808V15.6926C9.85808 16.1206 9.50913 16.4688 9.08031 16.4688ZM6.67523 15.5308H8.91813V9.49341C8.91813 9.20764 9.15113 8.97522 9.43733 8.97522H11.5266L11.5275 6.82263H9.43721C9.15101 6.82263 8.91813 6.59021 8.91813 6.30444V4.90479C8.91813 4.53833 8.95544 4.12158 9.23259 3.80835C9.56747 3.42969 10.0952 3.38599 10.4631 3.38599L11.6192 3.3855V1.40967L9.82408 1.40674C7.88205 1.40674 6.67523 2.64746 6.67523 4.64453V6.30444C6.67523 6.59009 6.44235 6.82263 6.15614 6.82263H4.39978V8.97522H6.15614C6.44235 8.97522 6.67523 9.20764 6.67523 9.49341V15.5308Z" fill="black"/>
</g>
<defs>
<clipPath id="clip0_686_2765">
<rect width="16" height="16" fill="white" transform="translate(0 0.5)"/>
</clipPath>
</defs>
</svg>
