<svg width="16" height="17" viewBox="0 0 16 17" fill="none" xmlns="http://www.w3.org/2000/svg">
<g clip-path="url(#clip0_686_2776)">
<path d="M15.868 2.60722C15.7112 2.41593 15.4513 2.34499 15.2202 2.43012L0.543491 7.74433C0.250278 7.8511 0.0444679 8.11003 0.00625993 8.42009C-0.0315819 8.72867 0.10416 9.02809 0.358799 9.20042L2.4567 10.6354C2.65995 10.7744 2.9213 10.7893 3.13895 10.6742L7.68973 8.26977L4.14298 10.9233C3.97647 11.0479 3.87699 11.2467 3.87699 11.4548V13.9127C3.87699 14.1663 4.01578 14.3986 4.23917 14.5192C4.46292 14.6398 4.73319 14.6278 4.94571 14.4874L6.53959 13.428L8.10697 14.4989C8.2443 14.5932 8.40787 14.6428 8.57291 14.6428C8.6287 14.6428 8.68473 14.6371 8.7399 14.6256C8.96 14.5796 9.1547 14.4433 9.2742 14.2518L15.9145 3.2809C16.0437 3.06967 16.0252 2.79937 15.868 2.60722ZM8.53788 13.6558L6.91471 12.5468C6.80179 12.4695 6.67167 12.4309 6.54166 12.4309C6.41446 12.4309 6.28714 12.4679 6.17569 12.542L4.81498 13.4464V11.5935L11.0778 6.90798C11.3575 6.69871 11.4279 6.31784 11.2415 6.02209C11.055 5.72635 10.6816 5.62642 10.3728 5.78958L2.84842 9.76524L1.07401 8.55157L14.5893 3.65798L8.53788 13.6558Z" fill="black"/>
</g>
<defs>
<clipPath id="clip0_686_2776">
<rect width="16" height="16" fill="white" transform="translate(0 0.5)"/>
</clipPath>
</defs>
</svg>
