<svg width="16" height="17" viewBox="0 0 16 17" fill="none" xmlns="http://www.w3.org/2000/svg">
<g clip-path="url(#clip0_686_2773)">
<path d="M6.088 15.116C3.4176 15.116 1.307 14.6494 0.297234 13.8362L0.277581 13.8203L0.259759 13.8025C0.0198906 13.5625 -0.0587227 13.2477 0.0443046 12.9389L0.053704 12.9132C0.178704 12.6006 0.484978 12.3902 0.816887 12.3882C1.49999 12.3764 2.09765 12.2949 2.64001 12.1369C1.77489 11.7345 1.17394 11.0379 0.816399 10.0296C0.69616 9.71511 0.79992 9.36647 1.07702 9.15859C1.14538 9.1072 1.22265 9.06838 1.30444 9.04238C0.823723 8.48745 0.468621 7.85598 0.269768 7.18813L0.263543 7.16738L0.25927 7.14614C0.191766 6.80837 0.342766 6.46108 0.6195 6.31154C0.735589 6.24489 0.861687 6.21035 0.988274 6.20742C0.851799 5.91347 0.752556 5.61171 0.693718 5.30812C0.530388 4.46682 0.665154 3.62343 1.09411 2.80141L1.19335 2.60292C1.27282 2.44411 1.42468 2.33254 1.59972 2.3041C1.77477 2.27578 1.95422 2.33364 2.07958 2.459L2.26037 2.64003C3.68859 4.13735 4.96789 4.8478 7.17968 5.33388C7.27843 4.48488 7.6455 3.6957 8.23766 3.0746C8.94237 2.33559 9.88341 1.92092 10.8874 1.90676H10.894C11.6266 1.90676 12.5353 2.32497 13.0848 2.61989C13.5563 2.46559 14.1243 2.2267 14.7136 1.97414C14.9894 1.84474 15.3293 1.90395 15.5461 2.12075C15.7587 2.33327 15.8176 2.63295 15.7048 2.92421C15.662 3.04348 15.6134 3.16054 15.5593 3.27504C15.64 3.31203 15.7139 3.3622 15.7762 3.42458C15.9648 3.61318 16.0434 3.90834 15.9764 4.17665L15.9692 4.20217C15.7434 4.92995 15.3096 5.52272 14.7358 5.89479C14.64 10.9975 10.7975 15.116 6.088 15.116ZM1.19701 13.3136C2.14855 13.8519 3.96191 14.1776 6.088 14.1776C8.13207 14.1776 10.061 13.3001 11.5194 11.7066C12.9897 10.1 13.7994 7.96657 13.7994 5.69924V5.67372C13.7994 5.4684 13.9125 5.28102 14.0943 5.18459C14.4634 4.98915 14.7622 4.65627 14.9565 4.23061C14.7561 4.26223 14.5524 4.18178 14.4275 4.01406C14.2823 3.81911 14.2808 3.5558 14.4235 3.35915C14.5005 3.25295 14.5703 3.14247 14.6326 3.02822C14.1236 3.24196 13.6404 3.43361 13.2208 3.56093C13.0683 3.60707 12.8984 3.58901 12.7591 3.51125C12.0122 3.09511 11.3165 2.84633 10.8971 2.84511C9.34936 2.86879 8.09093 4.19435 8.09093 5.80153C8.09093 5.96767 8.0172 6.12343 7.88891 6.22902C7.76049 6.33449 7.5935 6.37673 7.43041 6.3445C4.88012 5.84206 3.36889 5.08864 1.79736 3.50942C1.57214 4.04909 1.51061 4.59267 1.61474 5.12941C1.72033 5.67311 2.00121 6.21791 2.42712 6.70485C2.58898 6.88967 2.61047 7.15407 2.48058 7.36269C2.35119 7.57058 2.10522 7.66774 1.86877 7.60439C1.68395 7.55483 1.51403 7.48976 1.3529 7.40615C1.68115 8.11916 2.24572 8.77858 2.95544 9.26491C3.16113 9.4059 3.24706 9.66872 3.16454 9.90407C3.0819 10.1398 2.85107 10.2915 2.60155 10.273C2.3297 10.2528 2.08886 10.2012 1.86718 10.1142C2.26513 10.9246 2.90099 11.3705 3.88061 11.5409C4.11388 11.5816 4.29552 11.7658 4.33263 11.9993C4.36987 12.2328 4.25426 12.4643 4.04516 12.5752C3.2102 13.0178 2.2976 13.2554 1.19701 13.3136Z" fill="black"/>
</g>
<defs>
<clipPath id="clip0_686_2773">
<rect width="16" height="16" fill="white" transform="translate(0 0.5)"/>
</clipPath>
</defs>
</svg>
