<svg width="20" height="20" viewBox="0 0 20 20" fill="none" xmlns="http://www.w3.org/2000/svg">
<path d="M4.1247 17.0336L4.43704 17.424H4.43704L4.1247 17.0336ZM6.19923 15.374L5.88689 14.9835L6.19923 15.374ZM6.27034 15.181L6.39292 14.6963L6.27034 15.181ZM3 8.33337C3 5.84809 5.01472 3.83337 7.5 3.83337V2.83337C4.46243 2.83337 2 5.29581 2 8.33337H3ZM3 10.3334V8.33337H2V10.3334H3ZM3.07256 11.1431C3.02494 10.8808 3 10.6102 3 10.3334H2C2 10.6704 2.03037 11.0007 2.08865 11.3217L3.07256 11.1431ZM3 16.2527V11.2681H2V16.2527H3ZM3.81235 16.6432C3.48497 16.9051 3 16.672 3 16.2527H2C2 17.5105 3.4549 18.2097 4.43704 17.424L3.81235 16.6432ZM5.88689 14.9835L3.81235 16.6432L4.43704 17.424L6.51158 15.7644L5.88689 14.9835ZM7.5 14.8334C7.11736 14.8334 6.74657 14.7857 6.39292 14.6963L6.14776 15.6658C6.5809 15.7753 7.03402 15.8334 7.5 15.8334V14.8334ZM12.5 14.8334H7.5V15.8334H12.5V14.8334ZM17 10.3334C17 12.8187 14.9853 14.8334 12.5 14.8334V15.8334C15.5376 15.8334 18 13.3709 18 10.3334H17ZM17 8.33337V10.3334H18V8.33337H17ZM12.5 3.83337C14.9853 3.83337 17 5.84809 17 8.33337H18C18 5.29581 15.5376 2.83337 12.5 2.83337V3.83337ZM7.5 3.83337H12.5V2.83337H7.5V3.83337ZM6.51158 15.7644C6.7644 15.5621 6.79402 15.1885 6.57624 14.9489L5.8363 15.6216C5.6659 15.4341 5.68908 15.1418 5.88689 14.9835L6.51158 15.7644ZM2.91015 10.9162C2.58853 10.5624 2 10.79 2 11.2681H3C3 11.704 2.46344 11.9114 2.17021 11.5889L2.91015 10.9162ZM6.57624 14.9489C6.72944 15.1174 6.70913 15.3377 6.62563 15.473C6.5431 15.6066 6.3614 15.7198 6.14776 15.6658L6.39292 14.6963C5.88139 14.5669 5.44155 15.1874 5.8363 15.6216L6.57624 14.9489ZM2.08865 11.3217C2.00514 10.8618 2.58013 10.5532 2.91015 10.9162L2.17021 11.5889C2.53172 11.9866 3.16443 11.6491 3.07256 11.1431L2.08865 11.3217Z" fill="#7B7B7B"/>
<circle cx="6.2876" cy="9.37073" r="0.9375" fill="#7B7B7B"/>
<circle cx="10.0375" cy="9.37073" r="0.9375" fill="#7B7B7B"/>
<circle cx="13.7875" cy="9.37073" r="0.9375" fill="#7B7B7B"/>
</svg>
