<svg width="20" height="20" viewBox="0 0 20 20" fill="none" xmlns="http://www.w3.org/2000/svg">
<path d="M2.24231 6.94988L1.5444 6.67527L2.24231 6.94988ZM6.67071 17.6416L6.37081 18.329L6.67071 17.6416ZM13.3289 17.6416L13.029 16.9542L13.3289 17.6416ZM17.6417 13.3287L16.9543 13.0288L17.6417 13.3287ZM17.7574 13.0498L17.0595 12.7752L17.7574 13.0498ZM6.94989 17.7574L6.67528 18.4553L6.94989 17.7574ZM13.6289 1.67067C13.5284 1.6268 13.4268 1.58469 13.3244 1.54439L12.7752 2.94022C12.8606 2.97383 12.9453 3.00894 13.0291 3.04553L13.6289 1.67067ZM18.4553 6.67527C18.4149 6.57269 18.3728 6.47103 18.3288 6.37032L16.954 6.97019C16.9906 7.05418 17.0258 7.13896 17.0595 7.2245L18.4553 6.67527ZM18.3292 13.6286C18.373 13.5281 18.415 13.4267 18.4553 13.3244L17.0595 12.7752C17.0259 12.8605 16.9908 12.9451 16.9543 13.0288L18.3292 13.6286ZM13.3244 18.4553C13.4268 18.415 13.5283 18.3729 13.6288 18.3291L13.029 16.9542C12.9452 16.9908 12.8606 17.0259 12.7752 17.0595L13.3244 18.4553ZM6.37081 18.329C6.47136 18.3729 6.57287 18.415 6.67528 18.4553L7.2245 17.0595C7.13911 17.0259 7.05447 16.9908 6.97061 16.9542L6.37081 18.329ZM1.54439 13.3244C1.58468 13.4268 1.62678 13.5283 1.67065 13.6289L3.04551 13.0291C3.00893 12.9452 2.97382 12.8606 2.94022 12.7752L1.54439 13.3244ZM1.67076 6.37057C1.62686 6.4712 1.58472 6.57277 1.5444 6.67527L2.94023 7.22449C2.97385 7.13903 3.00899 7.05433 3.0456 6.97041L1.67076 6.37057ZM6.67526 1.5444C6.57285 1.58469 6.47134 1.6268 6.3708 1.67066L6.9706 3.04552C7.05445 3.00894 7.13909 2.97383 7.22449 2.94023L6.67526 1.5444ZM5.5215 5.52132C5.78709 5.25572 5.96718 4.93983 6.10151 4.65816C6.23115 4.38636 6.35064 4.07178 6.44445 3.84557C6.67089 3.29957 6.81871 3.11178 6.9706 3.04552L6.3708 1.67066C5.59771 2.00793 5.26257 2.7798 5.05888 3.27096C4.93762 3.56334 4.85527 3.78672 4.74762 4.01244C4.64467 4.22829 4.55204 4.36946 4.46084 4.46065L5.5215 5.52132ZM3.0456 6.97041C3.11187 6.81852 3.29967 6.67069 3.8457 6.44427C4.07192 6.35046 4.38651 6.23097 4.65832 6.10134C4.93999 5.967 5.2559 5.78692 5.5215 5.52132L4.46084 4.46065C4.36964 4.55185 4.22847 4.64448 4.01262 4.74743C3.7869 4.85508 3.5635 4.93743 3.27112 5.05868C2.77995 5.26236 2.00805 5.59749 1.67076 6.37057L3.0456 6.97041ZM3.66651 9.99984C3.66651 9.62407 3.57038 9.27323 3.46612 8.97899C3.36551 8.69509 3.22744 8.38803 3.13379 8.16175C2.90768 7.61544 2.87965 7.37844 2.94023 7.22449L1.5444 6.67527C1.23533 7.46074 1.54441 8.24396 1.74781 8.73539C1.86891 9.02799 1.96869 9.24418 2.05226 9.48C2.13216 9.70549 2.16651 9.87085 2.16651 9.99984H3.66651ZM2.94022 12.7752C2.87965 12.6212 2.90767 12.3842 3.13378 11.8379C3.22744 11.6117 3.36551 11.3046 3.46611 11.0207C3.57038 10.7265 3.66651 10.3756 3.66651 9.99984H2.16651C2.16651 10.1288 2.13216 10.2942 2.05226 10.5197C1.96869 10.7555 1.86891 10.9717 1.74781 11.2643C1.54441 11.7557 1.23533 12.5389 1.54439 13.3244L2.94022 12.7752ZM5.5215 14.4782C5.25589 14.2126 4.93997 14.0325 4.65828 13.8981C4.38646 13.7685 4.07186 13.649 3.84563 13.5552C3.29957 13.3288 3.11177 13.181 3.04551 13.0291L1.67065 13.6289C2.00793 14.402 2.77987 14.7371 3.27106 14.9408C3.56346 15.0621 3.78687 15.1444 4.01259 15.2521C4.22846 15.355 4.36964 15.4476 4.46084 15.5388L5.5215 14.4782ZM6.97061 16.9542C6.81873 16.8879 6.6709 16.7001 6.44446 16.1541C6.35065 15.9278 6.23116 15.6132 6.10153 15.3414C5.96719 15.0597 5.78711 14.7438 5.52149 14.4782L4.46084 15.5388C4.55203 15.63 4.64467 15.7712 4.74761 15.9871C4.85526 16.2128 4.93762 16.4362 5.05887 16.7286C5.26255 17.2198 5.59768 17.9918 6.37081 18.329L6.97061 16.9542ZM14.4782 14.478C14.2126 14.7436 14.0325 15.0595 13.8981 15.3413C13.7685 15.6131 13.649 15.9277 13.5552 16.154C13.3288 16.7001 13.1809 16.8879 13.029 16.9542L13.6288 18.3291C14.402 17.9918 14.7371 17.2197 14.9408 16.7285C15.0621 16.4361 15.1444 16.2126 15.2521 15.9869C15.355 15.771 15.4476 15.6298 15.5388 15.5386L14.4782 14.478ZM16.9543 13.0288C16.888 13.1807 16.7002 13.3285 16.1541 13.555C15.9279 13.6488 15.6133 13.7683 15.3414 13.8979C15.0597 14.0323 14.7438 14.2123 14.4782 14.478L15.5388 15.5386C15.63 15.4474 15.7712 15.3548 15.9871 15.2518C16.2129 15.1442 16.4363 15.0618 16.7287 14.9406C17.2199 14.7369 17.9919 14.4017 18.3292 13.6286L16.9543 13.0288ZM16.3332 9.99984C16.3332 10.3756 16.4293 10.7265 16.5336 11.0207C16.6342 11.3046 16.7723 11.6117 16.8659 11.8379C17.092 12.3842 17.12 12.6212 17.0595 12.7752L18.4553 13.3244C18.7644 12.5389 18.4553 11.7557 18.2519 11.2643C18.1308 10.9717 18.031 10.7555 17.9474 10.5197C17.8675 10.2942 17.8332 10.1288 17.8332 9.99984H16.3332ZM14.4782 5.52113C14.7438 5.78673 15.0597 5.96681 15.3413 6.10114C15.6131 6.23077 15.9277 6.35025 16.1539 6.44406C16.6999 6.67048 16.8877 6.8183 16.954 6.97019L18.3288 6.37032C17.9915 5.59727 17.2197 5.26215 16.7285 5.05847C16.4361 4.93723 16.2128 4.85488 15.987 4.74724C15.7712 4.64429 15.63 4.55167 15.5388 4.46047L14.4782 5.52113ZM9.99986 16.3332C9.62409 16.3332 9.27324 16.4293 8.97901 16.5336C8.6951 16.6342 8.38804 16.7723 8.16177 16.8659C7.61545 17.092 7.37845 17.12 7.2245 17.0595L6.67528 18.4553C7.46076 18.7644 8.24398 18.4553 8.73541 18.2519C9.028 18.1308 9.2442 18.031 9.48002 17.9474C9.70551 17.8675 9.87087 17.8332 9.99986 17.8332V16.3332ZM13.0291 3.04553C13.181 3.11179 13.3288 3.29956 13.5553 3.84552C13.6491 4.0717 13.7686 4.38626 13.8982 4.65804C14.0325 4.93968 14.2126 5.25555 14.4782 5.52113L15.5388 4.46047C15.4476 4.36927 15.355 4.22811 15.2521 4.01228C15.1444 3.78658 15.0621 3.56321 14.9408 3.27086C14.7371 2.77973 14.402 2.00793 13.6289 1.67067L13.0291 3.04553ZM9.99983 3.66651C10.3756 3.66651 10.7264 3.57038 11.0207 3.46611C11.3046 3.36551 11.6117 3.22744 11.8379 3.13378C12.3842 2.90767 12.6212 2.87965 12.7752 2.94022L13.3244 1.54439C12.5389 1.23533 11.7557 1.54441 11.2643 1.74781C10.9717 1.86891 10.7555 1.96869 10.5197 2.05226C10.2942 2.13216 10.1288 2.16651 9.99983 2.16651V3.66651ZM17.0595 7.2245C17.12 7.37845 17.092 7.61544 16.8659 8.16176C16.7723 8.38803 16.6342 8.69509 16.5336 8.979C16.4293 9.27323 16.3332 9.62407 16.3332 9.99984H17.8332C17.8332 9.87085 17.8675 9.7055 17.9474 9.48001C18.031 9.24418 18.1308 9.02799 18.2519 8.7354C18.4553 8.24396 18.7644 7.46075 18.4553 6.67527L17.0595 7.2245ZM12.7752 17.0595C12.6213 17.12 12.3843 17.092 11.8379 16.8659C11.6117 16.7723 11.3046 16.6342 11.0207 16.5336C10.7265 16.4293 10.3756 16.3332 9.99986 16.3332V17.8332C10.1288 17.8332 10.2942 17.8675 10.5197 17.9474C10.7555 18.031 10.9717 18.1308 11.2643 18.2519C11.7557 18.4553 12.539 18.7644 13.3244 18.4553L12.7752 17.0595ZM9.99983 2.16651C9.87084 2.16651 9.70549 2.13216 9.48 2.05226C9.24417 1.96869 9.02798 1.86891 8.73538 1.74781C8.24395 1.54441 7.46073 1.23533 6.67526 1.5444L7.22449 2.94023C7.37843 2.87966 7.61543 2.90768 8.16175 3.13379C8.38802 3.22744 8.69508 3.36551 8.97899 3.46612C9.27322 3.57038 9.62406 3.66651 9.99983 3.66651V2.16651Z" fill="#008BB7"/>
<path d="M7.49984 9.99935L9.1665 11.666L12.4998 8.33268" stroke="#008BB7" stroke-width="1.5" stroke-linecap="round" stroke-linejoin="round"/>
</svg>
