<svg width="24" height="25" fill="none" xmlns="http://www.w3.org/2000/svg"><g clip-path="url(#clip0_71_322)" fill="#000"><path d="M14.463 11.781l-3.535-1.934a.644.644 0 00-.643.01.644.644 0 00-.318.56v3.835c0 .23.118.438.316.557a.647.647 0 00.64.014l3.536-1.9a.65.65 0 00.004-1.142zm-3.558 1.988v-2.866l2.642 1.445-2.642 1.421z"/><path d="M19.882 9.298V9.29c-.014-.128-.149-1.274-.706-1.857-.643-.685-1.373-.768-1.724-.808a4.254 4.254 0 01-.08-.01l-.028-.002c-2.115-.154-5.31-.175-5.341-.175h-.006c-.032 0-3.226.02-5.36.175l-.029.002c-.022.004-.047.006-.075.01-.347.04-1.069.123-1.714.833-.53.576-.684 1.697-.7 1.823l-.001.017C4.113 9.35 4 10.628 4 11.908v1.197c0 1.28.113 2.557.118 2.61v.008c.014.127.149 1.252.703 1.835.605.662 1.37.75 1.782.797.065.007.121.013.16.02l.037.005c1.22.117 5.05.174 5.212.176h.01c.032 0 3.226-.021 5.342-.175l.028-.003.09-.01c.344-.037 1.062-.113 1.699-.813.53-.577.684-1.698.7-1.823l.001-.017c.005-.053.118-1.33.118-2.61v-1.197c0-1.28-.113-2.557-.118-2.61zm-.82 3.807a32.8 32.8 0 01-.113 2.518c-.04.31-.202 1.018-.46 1.3-.398.438-.808.481-1.107.513a5.1 5.1 0 00-.1.01c-2.045.149-5.12.172-5.26.172-.16-.002-3.933-.06-5.117-.17a4.083 4.083 0 00-.195-.025c-.35-.04-.83-.095-1.2-.5l-.008-.01c-.254-.265-.41-.928-.45-1.286a32.764 32.764 0 01-.114-2.522v-1.197c0-1.184.103-2.404.113-2.518.047-.364.212-1.03.46-1.3.41-.451.843-.501 1.13-.534l.076-.01c2.076-.148 5.172-.17 5.283-.17.111 0 3.206.022 5.263.17l.083.01c.294.034.74.085 1.148.52l.004.005c.254.264.41.939.45 1.304.008.08.114 1.318.114 2.523v1.197z"/></g><rect x=".5" y="1" width="23" height="23" rx="5.5" stroke="#000"/><defs><clipPath id="clip0_71_322"><path fill="#fff" transform="translate(4 4.5)" d="M0 0h16v16H0z"/></clipPath></defs></svg>