<svg width="24" height="25" fill="none" xmlns="http://www.w3.org/2000/svg"><g clip-path="url(#clip0_71_315)"><path d="M13.08 20.469h-2.567a.778.778 0 01-.778-.776v-5.78H8.238a.778.778 0 01-.778-.776v-2.476c0-.428.349-.776.778-.776h1.497v-1.24c0-1.23.387-2.276 1.119-3.026.735-.752 1.762-1.15 2.97-1.15l1.959.003c.428 0 .776.349.776.776v2.3a.778.778 0 01-.777.775l-1.319.001c-.402 0-.504.08-.526.105-.036.041-.079.157-.079.476v.98h1.824a.779.779 0 01.785.776v2.476a.778.778 0 01-.778.776h-1.831v5.78a.778.778 0 01-.778.776zm-2.405-.938h2.243v-6.038a.52.52 0 01.52-.518h2.088l.001-2.152h-2.09a.52.52 0 01-.519-.519v-1.4c0-.366.037-.782.315-1.096.334-.378.862-.422 1.23-.422h1.156V5.41l-1.795-.003c-1.942 0-3.149 1.24-3.149 3.238v1.66a.52.52 0 01-.519.518H8.4v2.152h1.756a.52.52 0 01.52.518v6.038z" fill="#000"/></g><rect x=".5" y="1" width="23" height="23" rx="5.5" stroke="#000"/><defs><clipPath id="clip0_71_315"><path fill="#fff" transform="translate(4 4.5)" d="M0 0h16v16H0z"/></clipPath></defs></svg>