<svg width="16" height="17" fill="none" xmlns="http://www.w3.org/2000/svg"><g clip-path="url(#clip0_686_2773)"><path d="M6.088 15.116c-2.67 0-4.781-.467-5.79-1.28l-.02-.016-.018-.018a.821.821 0 01-.216-.863l.01-.026a.836.836 0 01.763-.525c.683-.012 1.28-.093 1.823-.251-.865-.402-1.466-1.1-1.824-2.107a.747.747 0 01.261-.871.762.762 0 01.227-.117A5.046 5.046 0 01.27 7.188l-.006-.02-.005-.022c-.067-.338.084-.685.36-.834a.775.775 0 01.37-.105 3.902 3.902 0 01-.295-.899c-.164-.841-.029-1.685.4-2.507l.1-.198a.555.555 0 01.886-.144l.18.181c1.43 1.497 2.708 2.208 4.92 2.694a3.919 3.919 0 011.058-2.26 3.712 3.712 0 012.65-1.167h.006c.733 0 1.641.418 2.19.713.472-.154 1.04-.393 1.63-.646a.744.744 0 01.832.147.731.731 0 01.159.803c-.043.12-.092.237-.146.351a.727.727 0 01.217.15.805.805 0 01.2.752l-.007.025c-.226.728-.66 1.32-1.233 1.693-.096 5.103-3.939 9.221-8.648 9.221zm-4.891-1.802c.952.538 2.765.864 4.891.864 2.044 0 3.973-.878 5.431-2.471 1.47-1.607 2.28-3.74 2.28-6.008v-.025c0-.206.114-.393.295-.49.37-.195.668-.528.863-.953a.551.551 0 01-.53-.217.55.55 0 01-.003-.655c.077-.106.146-.217.209-.33-.51.213-.993.405-1.412.532a.6.6 0 01-.462-.05c-.747-.416-1.443-.665-1.862-.666-1.548.024-2.806 1.35-2.806 2.957a.552.552 0 01-.66.543c-2.55-.503-4.062-1.256-5.634-2.836a2.77 2.77 0 00-.182 1.62c.105.544.386 1.089.812 1.576a.55.55 0 01.054.658.55.55 0 01-.612.241 2.534 2.534 0 01-.516-.198c.328.713.893 1.373 1.602 1.859a.554.554 0 01-.353 1.008 2.49 2.49 0 01-.735-.159c.398.81 1.034 1.256 2.014 1.427a.554.554 0 01.164 1.034c-.835.443-1.747.68-2.848.739z" fill="#000"/></g><defs><clipPath id="clip0_686_2773"><path fill="#fff" transform="translate(0 .5)" d="M0 0h16v16H0z"/></clipPath></defs></svg>