<svg width="16" height="17" fill="none" xmlns="http://www.w3.org/2000/svg"><g clip-path="url(#clip0_686_2765)"><path d="M9.08 16.469H6.513a.778.778 0 01-.778-.776v-5.78H4.238a.778.778 0 01-.778-.776V6.661c0-.428.349-.776.778-.776h1.497v-1.24c0-1.23.387-2.276 1.119-3.026C7.589.867 8.616.47 9.824.47l1.959.003c.428 0 .776.349.776.776v2.3a.778.778 0 01-.777.775l-1.319.001c-.402 0-.504.08-.526.105-.036.041-.079.157-.079.476v.98h1.825a.779.779 0 01.785.776l-.002 2.476a.778.778 0 01-.777.776h-1.83v5.78a.778.778 0 01-.779.776zm-2.405-.938h2.243V9.493a.52.52 0 01.52-.518h2.089V6.823h-2.09a.52.52 0 01-.519-.519v-1.4c0-.366.037-.782.315-1.096.334-.378.862-.422 1.23-.422h1.156V1.41l-1.795-.003c-1.942 0-3.149 1.24-3.149 3.238v1.66a.52.52 0 01-.519.518H4.4v2.152h1.756a.52.52 0 01.52.518v6.038z" fill="#000"/></g><defs><clipPath id="clip0_686_2765"><path fill="#fff" transform="translate(0 .5)" d="M0 0h16v16H0z"/></clipPath></defs></svg>