<svg width="24" height="24" fill="none" xmlns="http://www.w3.org/2000/svg"><g clip-path="url(#clip0_468_687)"><path d="M21.245 10.261h-8.158a.652.652 0 00-.652.652v2.606c0 .36.292.652.652.652h4.594a6.133 6.133 0 01-2.64 3.094L17 20.655c3.142-1.817 5-5.005 5-8.575 0-.508-.038-.871-.113-1.28a.655.655 0 00-.642-.539z" fill="#167EE6"/><path d="M12 18.087a6.086 6.086 0 01-5.265-3.046l-3.391 1.954A9.986 9.986 0 0017 20.66v-.004l-1.96-3.391a6.041 6.041 0 01-3.04.822z" fill="#12B347"/><path d="M17 20.66v-.004l-1.959-3.391a6.041 6.041 0 01-3.041.822V22a9.983 9.983 0 005-1.34z" fill="#0F993E"/><path d="M5.913 12c0-1.108.302-2.145.822-3.04l-3.39-1.955A9.896 9.896 0 002 12c0 1.819.488 3.525 1.344 4.995l3.391-1.954A6.042 6.042 0 015.913 12z" fill="#FFD500"/><path d="M12 5.913c1.466 0 2.812.521 3.864 1.388a.65.65 0 00.874-.04l1.847-1.846a.657.657 0 00-.038-.961A9.97 9.97 0 0012 2a9.987 9.987 0 00-8.656 5.005l3.39 1.954A6.086 6.086 0 0112 5.913z" fill="#FF4B26"/><path d="M15.864 7.3a.65.65 0 00.875-.039l1.846-1.846a.657.657 0 00-.037-.961A9.97 9.97 0 0012 2v3.913c1.466 0 2.813.521 3.864 1.388z" fill="#D93F21"/></g><defs><clipPath id="clip0_468_687"><path fill="#fff" transform="translate(2 2)" d="M0 0h20v20H0z"/></clipPath></defs></svg>