<svg width="24" height="25" fill="none" xmlns="http://www.w3.org/2000/svg"><path d="M15.669 4.5H8.33A4.336 4.336 0 004 8.831v7.338A4.336 4.336 0 008.331 20.5h7.338A4.336 4.336 0 0020 16.17V8.83a4.336 4.336 0 00-4.331-4.33zm3.393 11.67a3.397 3.397 0 01-3.393 3.392H8.33a3.397 3.397 0 01-3.393-3.393V8.831A3.397 3.397 0 018.33 5.438h7.338a3.397 3.397 0 013.393 3.393v7.338z" fill="#000"/><path d="M12 8.125A4.38 4.38 0 007.625 12.5 4.38 4.38 0 0012 16.875a4.38 4.38 0 004.375-4.375A4.38 4.38 0 0012 8.125zm0 7.812A3.44 3.44 0 018.563 12.5 3.44 3.44 0 0112 9.063a3.44 3.44 0 013.437 3.437A3.44 3.44 0 0112 15.937zm4.48-9.366a1.294 1.294 0 000 2.586 1.294 1.294 0 000-2.586zm0 1.648a.355.355 0 110-.71.355.355 0 010 .71z" fill="#000"/><rect x=".5" y="1" width="23" height="23" rx="5.5" stroke="#000"/></svg>