<svg width="20" height="20" fill="none" xmlns="http://www.w3.org/2000/svg"><path d="M4.125 17.034l.312.39-.312-.39zm2.074-1.66l-.312-.39.312.39zm.071-.193l.123-.485-.123.485zM3 8.333a4.5 4.5 0 014.5-4.5v-1a5.5 5.5 0 00-5.5 5.5h1zm0 2v-2H2v2h1zm.073.81a4.53 4.53 0 01-.073-.81H2c0 .337.03.668.089.989l.984-.179zM3 16.253v-4.985H2v4.985h1zm.812.39a.5.5 0 01-.812-.39H2c0 1.258 1.455 1.957 2.437 1.171l-.625-.78zm2.075-1.66l-2.075 1.66.625.781 2.075-1.66-.625-.78zm1.613-.15c-.383 0-.753-.047-1.107-.137l-.245.97c.433.11.886.167 1.352.167v-1zm5 0h-5v1h5v-1zm4.5-4.5a4.5 4.5 0 01-4.5 4.5v1a5.5 5.5 0 005.5-5.5h-1zm0-2v2h1v-2h-1zm-4.5-4.5a4.5 4.5 0 014.5 4.5h1a5.5 5.5 0 00-5.5-5.5v1zm-5 0h5v-1h-5v1zm-.988 11.931a.561.561 0 00.064-.815l-.74.673a.439.439 0 01.05-.639l.626.781zM2.91 10.916a.523.523 0 00-.91.352h1a.477.477 0 01-.83.32l.74-.672zm3.666 4.033a.437.437 0 01-.428.717l.245-.97c-.512-.13-.951.491-.557.926l.74-.673zM2.09 11.322c-.084-.46.491-.769.821-.406l-.74.673c.362.398.994.06.903-.446l-.984.179z" fill="#7B7B7B"/><circle cx="6.288" cy="9.371" r=".938" fill="#7B7B7B"/><circle cx="10.037" cy="9.371" r=".938" fill="#7B7B7B"/><circle cx="13.787" cy="9.371" r=".938" fill="#7B7B7B"/></svg>