<svg width="20" height="20" fill="none" xmlns="http://www.w3.org/2000/svg"><path d="M2.242 6.95l-.698-.275.698.275zm4.429 10.692l-.3.687.3-.687zm6.658 0l-.3-.688.3.688zm4.313-4.313l-.688-.3.688.3zm.115-.28l-.698-.274.698.275zM6.95 17.758l-.275.698.275-.698zm6.679-16.086a8.999 8.999 0 00-.305-.127l-.549 1.396c.086.034.17.069.254.106l.6-1.375zm4.826 5.004a8.99 8.99 0 00-.126-.305l-1.375.6c.037.084.072.169.105.255l1.396-.55zm-.126 6.954c.044-.1.086-.202.126-.305l-1.395-.549c-.034.085-.07.17-.106.254l1.375.6zm-5.005 4.826a9.14 9.14 0 00.305-.126l-.6-1.375a7.438 7.438 0 01-.254.105l.55 1.396zm-6.953-.126c.1.044.202.086.304.126l.55-1.395a7.502 7.502 0 01-.254-.106l-.6 1.375zm-4.827-5.005c.04.103.083.204.127.305l1.375-.6a7.57 7.57 0 01-.106-.254l-1.396.55zm.127-6.953c-.044.1-.086.202-.127.304l1.396.55a8.06 8.06 0 01.106-.255l-1.375-.6zm5.004-4.827a8.11 8.11 0 00-.304.127l.6 1.375c.083-.037.168-.072.253-.106l-.549-1.396zM5.521 5.521c.266-.265.446-.581.58-.863.13-.272.25-.586.343-.812.227-.546.375-.734.527-.8l-.6-1.375c-.773.337-1.108 1.109-1.312 1.6-.121.292-.204.516-.311.741a1.64 1.64 0 01-.287.449l1.06 1.06zm-2.475 1.45c.066-.152.254-.3.8-.527.226-.094.54-.213.812-.343.282-.134.598-.314.863-.58l-1.06-1.06c-.091.09-.233.183-.448.286-.226.108-.45.19-.742.312-.491.203-1.263.538-1.6 1.312l1.375.6zM3.666 10c0-.376-.096-.727-.2-1.021-.1-.284-.239-.591-.332-.817-.226-.547-.254-.784-.194-.938l-1.396-.549c-.309.786 0 1.569.204 2.06.12.293.22.51.304.745.08.225.115.39.115.52h1.5zm-.726 2.775c-.06-.154-.032-.39.194-.937.093-.226.232-.533.332-.817.104-.295.2-.645.2-1.021h-1.5c0 .129-.034.294-.114.52-.083.236-.183.452-.304.744-.204.492-.513 1.275-.204 2.06l1.396-.549zm2.581 1.703a3.076 3.076 0 00-.863-.58c-.272-.13-.586-.249-.812-.343-.546-.226-.734-.374-.8-.526l-1.375.6c.337.773 1.109 1.108 1.6 1.312.292.121.516.203.742.311.215.103.357.196.448.287l1.06-1.06zm1.45 2.476c-.152-.066-.3-.254-.527-.8-.093-.226-.213-.54-.342-.813a3.073 3.073 0 00-.58-.863l-1.061 1.06c.091.092.184.233.287.45.107.225.19.448.31.74.205.492.54 1.264 1.313 1.601l.6-1.375zm7.507-2.476a3.074 3.074 0 00-.58.863c-.13.272-.249.587-.343.813-.226.546-.374.734-.526.8l.6 1.375c.773-.337 1.108-1.11 1.312-1.6.121-.293.203-.516.311-.742.103-.216.196-.357.287-.448l-1.06-1.061zm2.476-1.45c-.066.153-.254.3-.8.527-.226.094-.54.213-.813.343a3.073 3.073 0 00-.863.58l1.06 1.06c.092-.09.233-.183.45-.286.225-.108.448-.19.74-.311.492-.204 1.264-.54 1.601-1.312l-1.375-.6zM16.334 10c0 .376.095.726.2 1.02.1.285.238.592.332.818.226.546.254.783.194.937l1.395.55c.31-.786 0-1.57-.203-2.06-.121-.293-.221-.51-.305-.745-.08-.226-.114-.391-.114-.52h-1.5zm-1.857-4.48c.266.266.582.446.863.58.272.13.587.25.813.343.546.226.734.374.8.526l1.375-.6c-.338-.773-1.11-1.108-1.6-1.312-.293-.12-.516-.203-.742-.31-.216-.104-.357-.196-.448-.288l-1.06 1.061zM10 16.333c-.376 0-.727.096-1.021.2-.284.101-.591.24-.817.333-.547.226-.784.254-.938.194l-.549 1.395c.786.31 1.569 0 2.06-.203.293-.121.51-.221.745-.305.226-.08.39-.114.52-.114v-1.5zm3.03-13.287c.151.066.299.254.525.8.094.226.214.54.343.812.135.282.315.598.58.863l1.06-1.06a1.666 1.666 0 01-.286-.449c-.108-.225-.19-.449-.311-.741-.204-.491-.539-1.263-1.312-1.6l-.6 1.375zm-3.03.62c.376 0 .726-.096 1.02-.2.285-.1.592-.239.818-.332.546-.226.783-.254.937-.194l.55-1.396c-.786-.309-1.57 0-2.06.204-.293.12-.51.22-.745.304-.226.08-.391.115-.52.115v1.5zm7.06 3.558c.06.154.032.391-.194.938-.094.226-.232.533-.332.817-.105.294-.2.645-.2 1.02h1.5c0-.128.034-.293.113-.519.084-.236.184-.452.305-.745.203-.491.512-1.274.203-2.06l-1.395.55zm-4.285 9.835c-.154.061-.39.033-.937-.193-.226-.094-.533-.232-.817-.332a3.072 3.072 0 00-1.021-.2v1.5c.129 0 .294.034.52.113.236.084.452.184.744.305.492.203 1.275.512 2.06.203l-.549-1.395zM10 2.168c-.13 0-.295-.035-.52-.115-.236-.083-.452-.183-.745-.304-.491-.204-1.274-.513-2.06-.204l.55 1.396c.153-.06.39-.032.937.194.226.093.533.232.817.332.294.104.645.2 1.02.2v-1.5z" fill="#008BB7"/><path d="M7.5 10l1.666 1.666L12.5 8.333" stroke="#008BB7" stroke-width="1.5" stroke-linecap="round" stroke-linejoin="round"/></svg>