<svg width="24" height="25" fill="none" xmlns="http://www.w3.org/2000/svg"><g clip-path="url(#clip0_71_321)"><path d="M19.868 6.607a.579.579 0 00-.648-.177L4.543 11.744a.823.823 0 00-.537.676.818.818 0 00.353.78l2.098 1.435a.66.66 0 00.682.039l4.55-2.404-3.546 2.653a.667.667 0 00-.266.532v2.458a.688.688 0 001.069.574l1.594-1.06 1.567 1.072a.825.825 0 001.167-.247l6.64-10.971a.583.583 0 00-.046-.674zm-7.33 11.049l-1.623-1.11a.66.66 0 00-.74-.004l-1.36.904v-1.853l6.263-4.685a.66.66 0 00.163-.886.657.657 0 00-.868-.233l-7.525 3.976-1.774-1.214 13.515-4.893-6.051 9.997z" fill="#000"/></g><rect x=".5" y="1" width="23" height="23" rx="5.5" stroke="#000"/><defs><clipPath id="clip0_71_321"><path fill="#fff" transform="translate(4 4.5)" d="M0 0h16v16H0z"/></clipPath></defs></svg>